<svg width="130" height="39" viewBox="0 0 130 39" fill="none" xmlns="http://www.w3.org/2000/svg">
<mask id="mask0_1_1508" style="mask-type:alpha" maskUnits="userSpaceOnUse" x="0" y="0" width="130" height="39">
<path d="M129.477 0H0V38.6871H129.477V0Z" fill="#D9D9D9"/>
</mask>
<g mask="url(#mask0_1_1508)">
<path d="M41.5115 31.9424H42.1227V36.941H41.5115V31.9424ZM44.1004 31.9424H44.8555L42.6765 34.2846L44.9634 36.941H44.2083L41.9358 34.2988L44.1004 31.9424ZM45.8295 32.2994C45.8295 32.1899 45.8678 32.0971 45.9445 32.0209C46.026 31.9447 46.1195 31.9067 46.225 31.9067C46.3352 31.9067 46.4287 31.9447 46.5055 32.0209C46.5822 32.0971 46.6205 32.1899 46.6205 32.2994C46.6205 32.4042 46.5822 32.497 46.5055 32.5779C46.4287 32.6541 46.3352 32.6921 46.225 32.6921C46.1195 32.6921 46.026 32.6541 45.9445 32.5779C45.8678 32.497 45.8295 32.4042 45.8295 32.2994ZM45.9373 33.6562H46.5127V36.941H45.9373V33.6562ZM50.1067 34.9415C50.1067 34.6702 50.0468 34.4654 49.9269 34.3274C49.8071 34.1894 49.632 34.1203 49.4019 34.1203C49.2341 34.1203 49.0855 34.156 48.956 34.2274C48.8314 34.2941 48.7331 34.3893 48.6612 34.5131C48.5941 34.6368 48.5605 34.7796 48.5605 34.9415V36.941H47.9852V33.6562H48.5605V34.1703C48.6708 33.9704 48.8075 33.8228 48.9704 33.7276C49.1383 33.6324 49.33 33.5848 49.5458 33.5848C49.8958 33.5848 50.1714 33.7014 50.3728 33.9347C50.5789 34.1632 50.682 34.475 50.682 34.8701V36.941H50.1067V34.9415ZM54.5323 31.3711H55.1078V36.941H54.5323V31.3711ZM51.7636 35.2986C51.7636 34.9415 51.8378 34.6368 51.9865 34.3845C52.1351 34.1275 52.3341 33.9299 52.5834 33.7918C52.8327 33.6538 53.106 33.5848 53.4032 33.5848C53.6813 33.5848 53.9234 33.6538 54.1296 33.7918C54.3357 33.9299 54.4963 34.1275 54.6114 34.3845C54.7313 34.6368 54.7912 34.9415 54.7912 35.2986C54.7912 35.6508 54.7313 35.9555 54.6114 36.2126C54.4963 36.4697 54.3357 36.6672 54.1296 36.8053C53.9234 36.9433 53.6813 37.0124 53.4032 37.0124C53.106 37.0124 52.8327 36.9433 52.5834 36.8053C52.3341 36.6672 52.1351 36.4697 51.9865 36.2126C51.8378 35.9555 51.7636 35.6508 51.7636 35.2986ZM52.3461 35.2986C52.3461 35.5509 52.3964 35.7651 52.4971 35.9412C52.6026 36.1174 52.7416 36.2507 52.9142 36.3411C53.0868 36.4316 53.2738 36.4768 53.4751 36.4768C53.643 36.4768 53.8084 36.4316 53.9713 36.3411C54.1344 36.2507 54.2686 36.1174 54.3741 35.9412C54.4796 35.7651 54.5323 35.5509 54.5323 35.2986C54.5323 35.0463 54.4796 34.832 54.3741 34.6559C54.2686 34.4797 54.1344 34.3465 53.9713 34.256C53.8084 34.1655 53.643 34.1203 53.4751 34.1203C53.2738 34.1203 53.0868 34.1655 52.9142 34.256C52.7416 34.3465 52.6026 34.4797 52.4971 34.6559C52.3964 34.832 52.3461 35.0463 52.3461 35.2986ZM57.7205 37.0124C57.4135 37.0124 57.1402 36.941 56.9007 36.7981C56.6656 36.6505 56.4808 36.4482 56.347 36.1912C56.2175 35.9341 56.1528 35.6365 56.1528 35.2986C56.1528 34.9558 56.2197 34.6559 56.3542 34.3988C56.493 34.1417 56.685 33.9418 56.9295 33.799C57.1784 33.6562 57.4661 33.5848 57.7925 33.5848C58.1183 33.5848 58.3965 33.6538 58.6267 33.7918C58.8612 33.9252 59.041 34.118 59.166 34.3702C59.2905 34.6225 59.353 34.9225 59.353 35.27C59.353 35.3033 59.3502 35.339 59.3458 35.3771C59.3458 35.4104 59.3458 35.4319 59.3458 35.4414H56.5196V34.9558H58.8927L58.6626 35.2843C58.677 35.2605 58.6914 35.2248 58.7058 35.1772C58.7202 35.1248 58.7273 35.082 58.7273 35.0486C58.7273 34.8535 58.6864 34.6844 58.6051 34.5416C58.5282 34.3988 58.4203 34.2869 58.2815 34.206C58.1421 34.1251 57.9794 34.0846 57.7925 34.0846C57.5717 34.0846 57.3825 34.1322 57.2243 34.2274C57.0705 34.3179 56.951 34.4512 56.8647 34.6273C56.7829 34.7987 56.7397 35.0106 56.7353 35.2629C56.7353 35.5199 56.7757 35.7389 56.8576 35.9198C56.9389 36.1007 57.0589 36.2388 57.2171 36.334C57.3753 36.4292 57.5668 36.4768 57.7925 36.4768C58.0176 36.4768 58.2168 36.4292 58.3893 36.334C58.5619 36.234 58.708 36.084 58.828 35.8841L59.2955 36.1769C59.1229 36.453 58.9044 36.6625 58.641 36.8053C58.3822 36.9433 58.0751 37.0124 57.7205 37.0124ZM61.0043 33.6562V36.941H60.429V33.6562H61.0043ZM62.0039 34.2846C61.927 34.2274 61.8579 34.1869 61.7953 34.1632C61.7328 34.1346 61.6537 34.1203 61.558 34.1203C61.4142 34.1203 61.3013 34.156 61.22 34.2274C61.1387 34.2988 61.0812 34.3964 61.0474 34.5202C61.0187 34.644 61.0043 34.7844 61.0043 34.9415H60.7454C60.7454 34.6797 60.7908 34.4488 60.882 34.2489C60.9777 34.0441 61.1 33.8823 61.2488 33.7633C61.3976 33.6442 61.5486 33.5848 61.7019 33.5848C61.8219 33.5848 61.932 33.6014 62.0327 33.6347C62.1383 33.6633 62.234 33.7228 62.3203 33.8133L62.0039 34.2846ZM62.8536 37.1552H63.4361C63.4361 37.3123 63.4793 37.4575 63.5656 37.5908C63.6519 37.7288 63.7741 37.8383 63.9323 37.9192C64.0905 38.0049 64.2775 38.0478 64.4933 38.0478C64.6609 38.0478 64.8263 38.0073 64.9895 37.9264C65.1521 37.8455 65.2865 37.7169 65.3922 37.5408C65.5023 37.3694 65.5576 37.1457 65.5576 36.8695V33.6562H66.1329V36.8695C66.1329 37.2456 66.0538 37.5598 65.8956 37.8121C65.7374 38.0692 65.5333 38.262 65.2843 38.3905C65.0348 38.5191 64.771 38.5833 64.4933 38.5833C64.1719 38.5833 63.8864 38.5239 63.6375 38.4048C63.393 38.2858 63.201 38.1168 63.0622 37.8978C62.9228 37.6836 62.8536 37.436 62.8536 37.1552ZM62.7889 35.2986C62.7889 34.9415 62.863 34.6368 63.0118 34.3845C63.1601 34.1275 63.3592 33.9299 63.6087 33.7918C63.8576 33.6538 64.1309 33.5848 64.4285 33.5848C64.7062 33.5848 64.9485 33.6538 65.1549 33.7918C65.3607 33.9299 65.5216 34.1275 65.6367 34.3845C65.7562 34.6368 65.8165 34.9415 65.8165 35.2986C65.8165 35.6508 65.7562 35.9555 65.6367 36.2126C65.5216 36.4697 65.3607 36.6672 65.1549 36.8053C64.9485 36.9433 64.7062 37.0124 64.4285 37.0124C64.1309 37.0124 63.8576 36.9433 63.6087 36.8053C63.3592 36.6672 63.1601 36.4697 63.0118 36.2126C62.863 35.9555 62.7889 35.6508 62.7889 35.2986ZM63.3714 35.2986C63.3714 35.5509 63.4217 35.7651 63.5224 35.9412C63.6275 36.1174 63.7669 36.2507 63.9395 36.3411C64.1121 36.4316 64.2991 36.4768 64.5005 36.4768C64.6681 36.4768 64.8335 36.4316 64.9967 36.3411C65.1593 36.2507 65.2937 36.1174 65.3994 35.9412C65.5045 35.7651 65.5576 35.5509 65.5576 35.2986C65.5576 35.1081 65.5261 34.9415 65.4641 34.7987C65.4016 34.6511 65.3175 34.5273 65.2124 34.4274C65.1117 34.3274 64.9989 34.2512 64.8744 34.1989C64.7494 34.1465 64.6249 34.1203 64.5005 34.1203C64.2991 34.1203 64.1121 34.1655 63.9395 34.256C63.7669 34.3465 63.6275 34.4797 63.5224 34.6559C63.4217 34.832 63.3714 35.0463 63.3714 35.2986ZM67.7245 35.927C67.7245 36.0507 67.7532 36.1578 67.8108 36.2483C67.8727 36.3388 67.9568 36.4077 68.0625 36.4554C68.1725 36.4982 68.297 36.5196 68.4364 36.5196C68.6134 36.5196 68.7716 36.4839 68.911 36.4125C69.0549 36.3411 69.1672 36.2411 69.249 36.1126C69.3353 35.9793 69.3785 35.827 69.3785 35.6556L69.4936 36.0841C69.4936 36.2935 69.4288 36.4673 69.2994 36.6053C69.1744 36.7434 69.0189 36.8458 68.8319 36.9124C68.6494 36.979 68.4674 37.0124 68.2854 37.0124C68.084 37.0124 67.8943 36.9719 67.7173 36.891C67.5447 36.8053 67.4053 36.6839 67.3002 36.5268C67.1945 36.3697 67.1419 36.1792 67.1419 35.9555C67.1419 35.6365 67.2542 35.3819 67.4799 35.1914C67.7101 34.9963 68.0287 34.8987 68.4364 34.8987C68.6759 34.8987 68.8751 34.9272 69.0333 34.9844C69.1959 35.0367 69.3254 35.0986 69.4216 35.17C69.5173 35.2367 69.5821 35.2914 69.6158 35.3343V35.6699C69.4476 35.5556 69.275 35.4747 69.098 35.4271C68.9205 35.3747 68.7313 35.3485 68.5299 35.3485C68.3429 35.3485 68.1891 35.3723 68.0696 35.42C67.9546 35.4676 67.8683 35.5342 67.8108 35.6199C67.7532 35.7056 67.7245 35.8079 67.7245 35.927ZM67.6382 34.4131L67.3577 33.9918C67.4822 33.9013 67.6525 33.8109 67.8683 33.7204C68.0885 33.63 68.3523 33.5848 68.6593 33.5848C68.9182 33.5848 69.1434 33.6252 69.3353 33.7061C69.5317 33.7823 69.6827 33.8942 69.7884 34.0418C69.8985 34.1894 69.9538 34.3702 69.9538 34.5845V36.941H69.3785V34.663C69.3785 34.5488 69.3591 34.4559 69.321 34.3845C69.2822 34.3083 69.2275 34.2489 69.1556 34.206C69.0881 34.1632 69.009 34.1322 68.9182 34.1132C68.827 34.0941 68.7313 34.0846 68.6306 34.0846C68.4674 34.0846 68.3186 34.1037 68.1847 34.1417C68.0553 34.1798 67.9446 34.2251 67.8539 34.2774C67.7626 34.3298 67.6907 34.375 67.6382 34.4131ZM71.791 33.6562V36.941H71.2156V33.6562H71.791ZM72.7906 34.2846C72.7137 34.2274 72.644 34.1869 72.582 34.1632C72.5195 34.1346 72.4404 34.1203 72.3447 34.1203C72.2009 34.1203 72.088 34.156 72.0067 34.2274C71.9248 34.2988 71.8673 34.3964 71.8341 34.5202C71.8053 34.644 71.791 34.7844 71.791 34.9415H71.5321C71.5321 34.6797 71.5774 34.4488 71.6687 34.2489C71.7644 34.0441 71.8867 33.8823 72.0355 33.7633C72.1837 33.6442 72.3348 33.5848 72.4885 33.5848C72.608 33.5848 72.7187 33.6014 72.8193 33.6347C72.9244 33.6633 73.0207 33.7228 73.107 33.8133L72.7906 34.2846ZM73.4649 33.6562H75.119V34.1917H73.4649V33.6562ZM74.0043 32.5136H74.5796V36.941H74.0043V32.5136ZM77.2637 37.0124C76.9567 37.0124 76.6834 36.941 76.4439 36.7981C76.2087 36.6505 76.024 36.4482 75.8901 36.1912C75.7607 35.9341 75.6959 35.6365 75.6959 35.2986C75.6959 34.9558 75.7629 34.6559 75.8973 34.3988C76.0362 34.1417 76.2281 33.9418 76.4726 33.799C76.7216 33.6562 77.0092 33.5848 77.3356 33.5848C77.6614 33.5848 77.9397 33.6538 78.1698 33.7918C78.4044 33.9252 78.5842 34.118 78.7092 34.3702C78.8336 34.6225 78.8962 34.9225 78.8962 35.27C78.8962 35.3033 78.8934 35.339 78.889 35.3771C78.889 35.4104 78.889 35.4319 78.889 35.4414H76.0627V34.9558H78.4359L78.2058 35.2843C78.2201 35.2605 78.2345 35.2248 78.2489 35.1772C78.2633 35.1248 78.2705 35.082 78.2705 35.0486C78.2705 34.8535 78.2296 34.6844 78.1482 34.5416C78.0714 34.3988 77.9635 34.2869 77.8246 34.206C77.6852 34.1251 77.5226 34.0846 77.3356 34.0846C77.1149 34.0846 76.9257 34.1322 76.7675 34.2274C76.6137 34.3179 76.4942 34.4512 76.4079 34.6273C76.326 34.7987 76.2829 35.0106 76.2785 35.2629C76.2785 35.5199 76.3188 35.7389 76.4007 35.9198C76.482 36.1007 76.6021 36.2388 76.7603 36.334C76.9185 36.4292 77.1099 36.4768 77.3356 36.4768C77.5607 36.4768 77.7599 36.4292 77.9325 36.334C78.1051 36.234 78.2511 36.084 78.3712 35.8841L78.8386 36.1769C78.666 36.453 78.4475 36.6625 78.1842 36.8053C77.9253 36.9433 77.6183 37.0124 77.2637 37.0124ZM82.0936 34.9415C82.0936 34.6702 82.0339 34.4654 81.9138 34.3274C81.7938 34.1894 81.619 34.1203 81.3888 34.1203C81.2212 34.1203 81.0724 34.156 80.943 34.2274C80.8185 34.2941 80.72 34.3893 80.6481 34.5131C80.5812 34.6368 80.5474 34.7796 80.5474 34.9415V36.941H79.9721V33.6562H80.5474V34.1703C80.6575 33.9704 80.7942 33.8228 80.9573 33.7276C81.125 33.6324 81.3169 33.5848 81.5327 33.5848C81.8828 33.5848 82.1583 33.7014 82.3597 33.9347C82.566 34.1632 82.6689 34.475 82.6689 34.8701V36.941H82.0936V34.9415ZM87.5464 34.1989C87.4695 34.1084 87.3688 34.0037 87.2444 33.8847C87.1243 33.7609 87.0165 33.6228 86.9208 33.4705C86.8295 33.3182 86.7841 33.1515 86.7841 32.9706C86.7841 32.7469 86.8367 32.5517 86.9423 32.3851C87.0474 32.2185 87.1913 32.09 87.3738 31.9995C87.5608 31.909 87.7738 31.8638 88.0139 31.8638C88.2678 31.8638 88.4835 31.9162 88.6611 32.0209C88.8431 32.1257 88.9819 32.2637 89.0782 32.4351C89.1739 32.6017 89.222 32.785 89.222 32.9849C89.222 33.104 89.1977 33.2206 89.1501 33.3348C89.102 33.4491 89.0323 33.5633 88.9416 33.6776C88.8503 33.7871 88.7402 33.8942 88.6107 33.9989C88.4813 34.0989 88.3325 34.1989 88.1649 34.2988C88.0354 34.375 87.8938 34.4536 87.7406 34.5345C87.5868 34.6107 87.4408 34.6987 87.3019 34.7987C87.1675 34.8939 87.0574 35.0058 86.9711 35.1343C86.8848 35.2629 86.8416 35.4176 86.8416 35.5985C86.8416 35.7794 86.887 35.9365 86.9783 36.0698C87.074 36.2031 87.2012 36.3054 87.3594 36.3768C87.5176 36.4482 87.6925 36.4839 87.8844 36.4839C88.1145 36.4839 88.3347 36.434 88.546 36.334C88.7618 36.234 88.9676 36.1007 89.1645 35.9341C89.3609 35.7627 89.5501 35.5699 89.7326 35.3557C89.9196 35.1415 90.0994 34.9177 90.272 34.6844L90.7179 34.9629C90.5259 35.2105 90.3295 35.458 90.1282 35.7056C89.9268 35.9484 89.711 36.1674 89.4809 36.3625C89.2508 36.5577 89.0013 36.7148 88.733 36.8338C88.4641 36.9529 88.1693 37.0124 87.8484 37.0124C87.5752 37.0124 87.3135 36.9576 87.0646 36.8481C86.8201 36.7339 86.6187 36.5744 86.4605 36.3697C86.3067 36.1602 86.2304 35.915 86.2304 35.6342C86.2304 35.4247 86.2663 35.2414 86.3382 35.0843C86.4146 34.9272 86.5108 34.7892 86.6259 34.6702C86.7454 34.5511 86.8748 34.4488 87.0142 34.3631C87.1531 34.2774 87.2897 34.2036 87.4242 34.1417C87.558 34.0751 87.6731 34.0156 87.7693 33.9632C88.0376 33.8109 88.2484 33.6514 88.4022 33.4848C88.5604 33.3134 88.6395 33.1468 88.6395 32.9849C88.6395 32.8612 88.613 32.7541 88.5604 32.6636C88.5123 32.5731 88.4426 32.5017 88.3519 32.4494C88.2606 32.397 88.1477 32.3708 88.0139 32.3708C87.8169 32.3708 87.6637 32.4256 87.5536 32.5351C87.443 32.6445 87.3882 32.7898 87.3882 32.9706C87.3882 33.1325 87.4529 33.2872 87.5824 33.4348C87.7118 33.5824 87.8485 33.7395 87.9923 33.9061L90.6531 36.941H89.9627L87.5464 34.1989ZM94.1023 31.9424H94.7136V36.941H94.1023V31.9424ZM94.4403 32.5136V31.9424H95.4687C95.7945 31.9424 96.0844 32.0043 96.3388 32.128C96.5977 32.2471 96.8013 32.4184 96.9501 32.6422C97.1033 32.8659 97.1802 33.1325 97.1802 33.4419C97.1802 33.7466 97.1033 34.0132 96.9501 34.2417C96.8013 34.4654 96.5977 34.6392 96.3388 34.763C96.0844 34.882 95.7945 34.9415 95.4687 34.9415H94.4403V34.3702H95.4687C95.7945 34.3702 96.0584 34.2917 96.2597 34.1346C96.4655 33.9775 96.569 33.7466 96.569 33.4419C96.569 33.1325 96.4655 32.9016 96.2597 32.7493C96.0584 32.5922 95.7945 32.5136 95.4687 32.5136H94.4403ZM98.7286 33.6562V36.941H98.1533V33.6562H98.7286ZM99.7282 34.2846C99.6513 34.2274 99.5816 34.1869 99.5197 34.1632C99.4572 34.1346 99.3781 34.1203 99.2824 34.1203C99.1385 34.1203 99.0257 34.156 98.9444 34.2274C98.8625 34.2988 98.805 34.3964 98.7718 34.5202C98.743 34.644 98.7286 34.7844 98.7286 34.9415H98.4697C98.4697 34.6797 98.5151 34.4488 98.6064 34.2489C98.7021 34.0441 98.8243 33.8823 98.9731 33.7633C99.1214 33.6442 99.2724 33.5848 99.4262 33.5848C99.5457 33.5848 99.6563 33.6014 99.757 33.6347C99.8621 33.6633 99.9584 33.7228 100.045 33.8133L99.7282 34.2846ZM102.08 37.0124C101.774 37.0124 101.501 36.941 101.261 36.7981C101.026 36.6505 100.841 36.4482 100.707 36.1912C100.577 35.9341 100.513 35.6365 100.513 35.2986C100.513 34.9558 100.58 34.6559 100.714 34.3988C100.853 34.1417 101.045 33.9418 101.289 33.799C101.539 33.6562 101.826 33.5848 102.152 33.5848C102.479 33.5848 102.756 33.6538 102.987 33.7918C103.222 33.9252 103.401 34.118 103.526 34.3702C103.651 34.6225 103.713 34.9225 103.713 35.27C103.713 35.3033 103.711 35.339 103.706 35.3771C103.706 35.4104 103.706 35.4319 103.706 35.4414H100.879V34.9558H103.253L103.022 35.2843C103.037 35.2605 103.051 35.2248 103.066 35.1772C103.08 35.1248 103.087 35.082 103.087 35.0486C103.087 34.8535 103.047 34.6844 102.965 34.5416C102.889 34.3988 102.781 34.2869 102.641 34.206C102.502 34.1251 102.339 34.0846 102.152 34.0846C101.932 34.0846 101.742 34.1322 101.584 34.2274C101.431 34.3179 101.311 34.4512 101.225 34.6273C101.143 34.7987 101.1 35.0106 101.095 35.2629C101.095 35.5199 101.136 35.7389 101.217 35.9198C101.299 36.1007 101.419 36.2388 101.577 36.334C101.735 36.4292 101.927 36.4768 102.152 36.4768C102.378 36.4768 102.577 36.4292 102.749 36.334C102.922 36.234 103.068 36.084 103.188 35.8841L103.655 36.1769C103.483 36.453 103.265 36.6625 103.001 36.8053C102.742 36.9433 102.436 37.0124 102.08 37.0124ZM107.456 35.4271C107.571 35.627 107.691 35.8032 107.815 35.9555C107.945 36.1078 108.089 36.2269 108.247 36.3126C108.405 36.3983 108.585 36.4411 108.786 36.4411C109.055 36.4411 109.271 36.3673 109.433 36.2197C109.597 36.0721 109.678 35.8841 109.678 35.6556C109.678 35.4319 109.625 35.2533 109.52 35.12C109.415 34.9867 109.275 34.8796 109.103 34.7987C108.935 34.713 108.755 34.6368 108.563 34.5702C108.439 34.5273 108.3 34.4726 108.146 34.406C107.993 34.3345 107.847 34.2465 107.707 34.1417C107.569 34.0323 107.454 33.899 107.362 33.7419C107.276 33.5848 107.233 33.392 107.233 33.1634C107.233 32.9159 107.295 32.6945 107.42 32.4993C107.545 32.3042 107.717 32.1518 107.938 32.0423C108.158 31.9281 108.41 31.871 108.693 31.871C108.966 31.871 109.203 31.9233 109.405 32.0281C109.611 32.128 109.786 32.2589 109.93 32.4208C110.073 32.5779 110.186 32.7445 110.268 32.9207L109.743 33.2206C109.681 33.0968 109.602 32.9754 109.505 32.8564C109.41 32.7374 109.292 32.6398 109.153 32.5636C109.019 32.4874 108.854 32.4494 108.657 32.4494C108.383 32.4494 108.185 32.516 108.06 32.6493C107.935 32.7778 107.873 32.923 107.873 33.0849C107.873 33.2229 107.909 33.3515 107.981 33.4705C108.053 33.5848 108.173 33.6942 108.34 33.799C108.513 33.899 108.746 33.9989 109.038 34.0989C109.172 34.1465 109.314 34.2084 109.462 34.2846C109.611 34.3607 109.748 34.4583 109.872 34.5773C110.002 34.6916 110.107 34.832 110.189 34.9986C110.27 35.1605 110.311 35.3557 110.311 35.5842C110.311 35.8032 110.268 36.0007 110.181 36.1769C110.1 36.353 109.985 36.503 109.836 36.6268C109.692 36.7505 109.527 36.8458 109.34 36.9124C109.158 36.979 108.966 37.0124 108.765 37.0124C108.491 37.0124 108.237 36.9552 108.002 36.841C107.772 36.7219 107.569 36.5673 107.391 36.3768C107.218 36.1817 107.077 35.9746 106.967 35.7556L107.456 35.4271ZM111.719 35.2986C111.719 35.5271 111.767 35.7294 111.863 35.9055C111.964 36.0817 112.098 36.2221 112.266 36.3268C112.438 36.4268 112.633 36.4768 112.848 36.4768C113.026 36.4768 113.191 36.4506 113.344 36.3982C113.503 36.3411 113.639 36.2674 113.754 36.1769C113.869 36.0817 113.951 35.9817 113.999 35.877V36.5911C113.884 36.7244 113.718 36.8291 113.503 36.9052C113.292 36.9767 113.074 37.0124 112.848 37.0124C112.527 37.0124 112.237 36.9386 111.978 36.791C111.719 36.6434 111.513 36.4411 111.36 36.184C111.211 35.9222 111.137 35.627 111.137 35.2986C111.137 34.9653 111.211 34.6702 111.36 34.4131C111.513 34.156 111.719 33.9537 111.978 33.8061C112.237 33.6585 112.527 33.5848 112.848 33.5848C113.074 33.5848 113.292 33.6228 113.503 33.699C113.718 33.7704 113.884 33.8728 113.999 34.0061V34.7202C113.951 34.6107 113.869 34.5107 113.754 34.4202C113.639 34.3298 113.503 34.2584 113.344 34.206C113.191 34.1489 113.026 34.1203 112.848 34.1203C112.633 34.1203 112.438 34.1703 112.266 34.2703C112.098 34.3702 111.964 34.5107 111.863 34.6916C111.767 34.8677 111.719 35.0701 111.719 35.2986ZM115.758 31.3711V36.941H115.182V31.3711H115.758ZM117.304 34.9415C117.304 34.6702 117.244 34.4654 117.124 34.3274C117.009 34.1894 116.834 34.1203 116.599 34.1203C116.431 34.1203 116.282 34.156 116.153 34.2274C116.029 34.2988 115.93 34.3964 115.858 34.5202C115.791 34.644 115.758 34.7844 115.758 34.9415H115.571C115.571 34.6797 115.621 34.4488 115.722 34.2489C115.822 34.0441 115.959 33.8823 116.131 33.7633C116.309 33.6442 116.513 33.5848 116.743 33.5848C116.973 33.5848 117.172 33.6324 117.34 33.7276C117.512 33.8228 117.644 33.9656 117.735 34.156C117.831 34.3465 117.879 34.5845 117.879 34.8701V36.941H117.304V34.9415ZM118.96 35.2986C118.96 34.9653 119.035 34.6702 119.183 34.4131C119.337 34.156 119.543 33.9537 119.802 33.8061C120.061 33.6585 120.351 33.5848 120.672 33.5848C120.998 33.5848 121.288 33.6585 121.542 33.8061C121.801 33.9537 122.005 34.156 122.154 34.4131C122.307 34.6702 122.384 34.9653 122.384 35.2986C122.384 35.627 122.307 35.9222 122.154 36.184C122.005 36.4411 121.801 36.6434 121.542 36.791C121.288 36.9386 120.998 37.0124 120.672 37.0124C120.351 37.0124 120.061 36.9386 119.802 36.791C119.543 36.6434 119.337 36.4411 119.183 36.184C119.035 35.9222 118.96 35.627 118.96 35.2986ZM119.543 35.2986C119.543 35.5271 119.591 35.7294 119.687 35.9055C119.788 36.0817 119.922 36.2221 120.09 36.3268C120.262 36.4268 120.456 36.4768 120.672 36.4768C120.888 36.4768 121.08 36.4268 121.247 36.3268C121.42 36.2221 121.554 36.0817 121.65 35.9055C121.751 35.7294 121.801 35.5271 121.801 35.2986C121.801 35.0701 121.751 34.8677 121.65 34.6916C121.554 34.5107 121.42 34.3702 121.247 34.2703C121.08 34.1703 120.888 34.1203 120.672 34.1203C120.456 34.1203 120.262 34.1703 120.09 34.2703C119.922 34.3702 119.788 34.5107 119.687 34.6916C119.591 34.8677 119.543 35.0701 119.543 35.2986ZM123.174 35.2986C123.174 34.9653 123.248 34.6702 123.397 34.4131C123.55 34.156 123.757 33.9537 124.016 33.8061C124.274 33.6585 124.564 33.5848 124.886 33.5848C125.212 33.5848 125.502 33.6585 125.756 33.8061C126.015 33.9537 126.218 34.156 126.367 34.4131C126.52 34.6702 126.597 34.9653 126.597 35.2986C126.597 35.627 126.52 35.9222 126.367 36.184C126.218 36.4411 126.015 36.6434 125.756 36.791C125.502 36.9386 125.212 37.0124 124.886 37.0124C124.564 37.0124 124.274 36.9386 124.016 36.791C123.757 36.6434 123.55 36.4411 123.397 36.184C123.248 35.9222 123.174 35.627 123.174 35.2986ZM123.757 35.2986C123.757 35.5271 123.805 35.7294 123.9 35.9055C124.001 36.0817 124.136 36.2221 124.303 36.3268C124.476 36.4268 124.67 36.4768 124.886 36.4768C125.101 36.4768 125.293 36.4268 125.461 36.3268C125.634 36.2221 125.768 36.0817 125.864 35.9055C125.964 35.7294 126.015 35.5271 126.015 35.2986C126.015 35.0701 125.964 34.8677 125.864 34.6916C125.768 34.5107 125.634 34.3702 125.461 34.2703C125.293 34.1703 125.101 34.1203 124.886 34.1203C124.67 34.1203 124.476 34.1703 124.303 34.2703C124.136 34.3702 124.001 34.5107 123.9 34.6916C123.805 34.8677 123.757 35.0701 123.757 35.2986ZM127.675 31.3711H128.251V36.941H127.675V31.3711Z" fill="#444444"/>
<path d="M44.1691 27.8097C43.4223 27.8097 42.8913 27.7026 42.5759 27.4883C42.2606 27.2576 42.0698 26.9693 42.0034 26.6232C41.937 26.2607 41.9038 25.8981 41.9038 25.5356V12.7562C41.9038 12.3937 41.937 12.0394 42.0034 11.6933C42.0698 11.3473 42.2606 11.0671 42.5759 10.8529C42.8913 10.6222 43.4306 10.5069 44.194 10.5069C44.9574 10.5069 45.4885 10.6222 45.7872 10.8529C46.1025 11.0671 46.2934 11.3473 46.3598 11.6933C46.4261 12.0394 46.4593 12.4019 46.4593 12.7809V16.1921L50.7908 11.2731C51.1725 10.8612 51.5293 10.5728 51.8613 10.408C52.1932 10.2432 52.5334 10.2102 52.8819 10.3091C53.2304 10.408 53.6121 10.6552 54.027 11.0507C54.7074 11.6604 55.0558 12.1959 55.0724 12.6574C55.089 13.1188 54.8153 13.6461 54.251 14.2393L49.3719 19.183L54.2759 24.0525C54.89 24.6622 55.172 25.2143 55.1222 25.7086C55.089 26.1865 54.7323 26.7056 54.0519 27.2659C53.554 27.6614 53.1308 27.9086 52.7823 28.0074C52.4338 28.1063 52.1102 28.0651 51.8115 27.8838C51.5127 27.719 51.1808 27.4224 50.8157 26.994L46.4593 22.075V25.5603C46.4593 25.9228 46.4261 26.2771 46.3598 26.6232C46.2934 26.9693 46.1025 27.2576 45.7872 27.4883C45.4719 27.7026 44.9325 27.8097 44.1691 27.8097ZM59.3475 27.8097C58.6007 27.8097 58.0696 27.7026 57.7543 27.4883C57.439 27.2576 57.2481 26.9693 57.1817 26.6232C57.132 26.2771 57.1071 25.9228 57.1071 25.5603V17.5021C57.1071 17.1396 57.1403 16.7936 57.2066 16.464C57.273 16.1179 57.4639 15.8378 57.7792 15.6236C58.0945 15.3928 58.6256 15.2775 59.3724 15.2775C60.1192 15.2775 60.642 15.3928 60.9407 15.6236C61.256 15.8378 61.4468 16.1179 61.5132 16.464C61.5796 16.81 61.6128 17.1726 61.6128 17.5516V25.585C61.6128 25.9476 61.5796 26.3019 61.5132 26.6479C61.4468 26.994 61.256 27.2741 60.9407 27.4883C60.642 27.7026 60.1109 27.8097 59.3475 27.8097ZM59.3475 14.0663C58.6007 14.0663 58.0696 13.9592 57.7543 13.745C57.439 13.5143 57.2481 13.2259 57.1817 12.8798C57.132 12.5338 57.1071 12.1795 57.1071 11.8169C57.1071 11.4379 57.1403 11.0836 57.2066 10.754C57.273 10.408 57.4639 10.1278 57.7792 9.91362C58.0945 9.6994 58.6256 9.59229 59.3724 9.59229C60.1192 9.59229 60.642 9.70764 60.9407 9.93834C61.256 10.1526 61.4468 10.4327 61.5132 10.7788C61.5796 11.1248 61.6128 11.4791 61.6128 11.8417C61.6128 12.2042 61.5796 12.5585 61.5132 12.9045C61.4468 13.2506 61.256 13.5307 60.9407 13.745C60.642 13.9592 60.1109 14.0663 59.3475 14.0663ZM96.4821 27.8097C95.7353 27.8097 95.2043 27.7026 94.8889 27.4883C94.5736 27.2576 94.3828 26.9693 94.3164 26.6232C94.2666 26.2771 94.2417 25.9228 94.2417 25.5603V17.5021C94.2417 17.1396 94.2749 16.7936 94.3413 16.464C94.4076 16.1179 94.5985 15.8378 94.9138 15.6236C95.2291 15.3928 95.7602 15.2775 96.507 15.2775C97.2538 15.2775 97.7766 15.3928 98.0753 15.6236C98.3906 15.8378 98.5815 16.1179 98.6479 16.464C98.7142 16.81 98.7474 17.1726 98.7474 17.5516V25.585C98.7474 25.9476 98.7142 26.3019 98.6479 26.6479C98.5815 26.994 98.3906 27.2741 98.0753 27.4883C97.7766 27.7026 97.2455 27.8097 96.4821 27.8097ZM96.4821 14.0663C95.7353 14.0663 95.2043 13.9592 94.8889 13.745C94.5736 13.5143 94.3828 13.2259 94.3164 12.8798C94.2666 12.5338 94.2417 12.1795 94.2417 11.8169C94.2417 11.4379 94.2749 11.0836 94.3413 10.754C94.4076 10.408 94.5985 10.1278 94.9138 9.91362C95.2291 9.6994 95.7602 9.59229 96.507 9.59229C97.2538 9.59229 97.7766 9.70764 98.0753 9.93834C98.3906 10.1526 98.5815 10.4327 98.6479 10.7788C98.7142 11.1248 98.7474 11.4791 98.7474 11.8417C98.7474 12.2042 98.7142 12.5585 98.6479 12.9045C98.5815 13.2506 98.3906 13.5307 98.0753 13.745C97.7766 13.9592 97.2455 14.0663 96.4821 14.0663ZM103.712 27.785C102.965 27.785 102.434 27.6779 102.119 27.4636C101.803 27.2329 101.612 26.9445 101.546 26.5985C101.496 26.2524 101.471 25.8981 101.471 25.5356V17.4033C101.471 17.0407 101.505 16.6947 101.571 16.3651C101.637 16.0355 101.828 15.7719 102.143 15.5741C102.459 15.3599 102.99 15.2528 103.737 15.2528C104.417 15.2528 104.907 15.3434 105.205 15.5247C105.521 15.6895 105.72 15.8955 105.803 16.1426C105.886 16.3898 105.919 16.6205 105.902 16.8347C105.902 17.0325 105.919 17.1561 105.952 17.2055L105.753 17.3538C105.736 17.1067 105.828 16.8595 106.027 16.6123C106.243 16.3651 106.516 16.1426 106.848 15.9449C107.197 15.7307 107.562 15.5659 107.944 15.4505C108.342 15.3187 108.715 15.2528 109.064 15.2528C109.894 15.2528 110.624 15.4093 111.255 15.7224C111.885 16.0355 112.408 16.4805 112.823 17.0572C113.254 17.6175 113.578 18.2767 113.794 19.0347C114.009 19.7927 114.117 20.6167 114.117 21.5065V25.5603C114.117 25.9228 114.084 26.2771 114.018 26.6232C113.951 26.9693 113.761 27.2494 113.445 27.4636C113.146 27.6779 112.615 27.785 111.852 27.785C111.089 27.785 110.549 27.6779 110.234 27.4636C109.919 27.2329 109.728 26.9445 109.661 26.5985C109.595 26.2524 109.562 25.8981 109.562 25.5356V21.5065C109.562 21.1275 109.487 20.8062 109.338 20.5425C109.205 20.2788 109.006 20.0811 108.74 19.9493C108.491 19.8009 108.176 19.7268 107.794 19.7268C107.429 19.7268 107.106 19.8009 106.823 19.9493C106.558 20.0976 106.351 20.3036 106.201 20.5672C106.052 20.8309 105.977 21.144 105.977 21.5065V25.5603C105.977 25.9228 105.944 26.2771 105.878 26.6232C105.811 26.9693 105.62 27.2494 105.305 27.4636C105.006 27.6779 104.475 27.785 103.712 27.785ZM122.901 28.0321C122.137 28.0321 121.366 27.8838 120.586 27.5872C119.806 27.2741 119.084 26.8374 118.42 26.2771C117.773 25.7004 117.25 25.0165 116.852 24.2255C116.47 23.4181 116.279 22.52 116.279 21.5312C116.279 20.6249 116.453 19.7762 116.802 18.9852C117.15 18.1943 117.623 17.5021 118.221 16.9089C118.835 16.2992 119.532 15.8213 120.312 15.4752C121.109 15.1292 121.955 14.9562 122.851 14.9562C124.079 14.9562 125.191 15.2528 126.187 15.846C127.183 16.4228 127.979 17.2055 128.577 18.1943C129.174 19.183 129.473 20.2871 129.473 21.5065C129.473 22.5447 129.274 23.4675 128.875 24.275C128.477 25.0824 127.954 25.7663 127.307 26.3266C126.66 26.8869 125.946 27.3071 125.166 27.5872C124.403 27.8838 123.648 28.0321 122.901 28.0321ZM122.851 23.5087C123.1 23.5087 123.382 23.451 123.697 23.3357C124.029 23.2038 124.312 22.9896 124.544 22.693C124.793 22.3964 124.917 21.9926 124.917 21.4818C124.917 21.0698 124.826 20.7155 124.643 20.4189C124.477 20.1223 124.237 19.8916 123.922 19.7268C123.606 19.562 123.241 19.4796 122.826 19.4796C122.461 19.4796 122.129 19.5702 121.83 19.7515C121.532 19.9163 121.291 20.1552 121.109 20.4683C120.926 20.765 120.835 21.111 120.835 21.5065C120.835 22.0009 120.951 22.3964 121.183 22.693C121.416 22.9896 121.689 23.2038 122.005 23.3357C122.32 23.451 122.602 23.5087 122.851 23.5087Z" fill="black"/>
<path d="M69.7138 27.7602C68.967 27.7602 68.2451 27.5955 67.5481 27.2659C66.8676 26.9198 66.2536 26.4584 65.7059 25.8817C65.1749 25.2884 64.7517 24.6128 64.4364 23.8548C64.121 23.0967 63.9634 22.3057 63.9634 21.4818C63.9634 20.6908 64.121 19.9245 64.4364 19.183C64.7517 18.4414 65.1832 17.7823 65.7308 17.2055C66.2785 16.6123 66.8925 16.1426 67.573 15.7966C68.27 15.4505 68.9836 15.2775 69.7138 15.2775C70.5104 15.2775 71.1991 15.4505 71.78 15.7966C72.3608 16.1262 72.8421 16.5793 73.2238 17.1561C73.6055 17.7328 73.8876 18.392 74.0702 19.1336C74.2693 19.8751 74.3772 20.6414 74.3938 21.4324C74.4104 22.2398 74.3274 23.0226 74.1449 23.7806C73.9623 24.5221 73.6802 25.1978 73.2985 25.8075C72.9168 26.4007 72.4272 26.8786 71.8298 27.2412C71.2489 27.5872 70.5436 27.7602 69.7138 27.7602ZM70.3113 23.3109C70.6266 23.3109 70.917 23.2286 71.1825 23.0638C71.4481 22.899 71.6638 22.6848 71.8298 22.4211C71.9957 22.1409 72.0787 21.8443 72.0787 21.5312C72.0787 21.2017 71.9957 20.905 71.8298 20.6414C71.6804 20.3777 71.4729 20.1635 71.2074 19.9987C70.9419 19.8339 70.6349 19.7515 70.2864 19.7515C69.9544 19.7515 69.6474 19.8339 69.3653 19.9987C69.0998 20.147 68.884 20.3612 68.7181 20.6414C68.5687 20.905 68.494 21.2017 68.494 21.5312C68.494 21.8443 68.577 22.1409 68.743 22.4211C68.9089 22.6848 69.133 22.899 69.4151 23.0638C69.6972 23.2286 69.9959 23.3109 70.3113 23.3109ZM74.3938 27.785C73.73 27.785 73.2321 27.6861 72.9002 27.4883C72.5683 27.2906 72.3442 26.9775 72.2281 26.549V11.8417C72.2281 11.4791 72.2447 11.1248 72.2779 10.7788C72.3276 10.4327 72.5019 10.1526 72.8006 9.93834C73.0993 9.70764 73.6221 9.59229 74.3689 9.59229C75.1323 9.59229 75.6634 9.6994 75.9621 9.91362C76.2774 10.1278 76.4683 10.408 76.5347 10.754C76.601 11.0836 76.6342 11.4379 76.6342 11.8169V25.5356C76.6342 25.8981 76.601 26.2524 76.5347 26.5985C76.4683 26.9445 76.2774 27.2329 75.9621 27.4636C75.6634 27.6779 75.1406 27.785 74.3938 27.785ZM84.6041 27.7602C83.8573 27.7602 83.1353 27.5955 82.4383 27.2659C81.7579 26.9198 81.1438 26.4584 80.5962 25.8817C80.0651 25.2884 79.6419 24.6128 79.3266 23.8548C79.0113 23.0967 78.8536 22.3057 78.8536 21.4818C78.8536 20.6908 79.0113 19.9245 79.3266 19.183C79.6419 18.4414 80.0734 17.7823 80.6211 17.2055C81.1687 16.6123 81.7828 16.1426 82.4632 15.7966C83.1602 15.4505 83.8738 15.2775 84.6041 15.2775C85.4007 15.2775 86.0894 15.4505 86.6702 15.7966C87.2511 16.1262 87.7324 16.5793 88.1141 17.1561C88.4958 17.7328 88.7779 18.392 88.9604 19.1336C89.1596 19.8751 89.2675 20.6414 89.2841 21.4324C89.3007 22.2398 89.2177 23.0226 89.0351 23.7806C88.8526 24.5221 88.5704 25.1978 88.1887 25.8075C87.807 26.4007 87.3175 26.8786 86.72 27.2412C86.1392 27.5872 85.4338 27.7602 84.6041 27.7602ZM85.2015 23.3109C85.5168 23.3109 85.8073 23.2286 86.0728 23.0638C86.3383 22.899 86.5541 22.6848 86.72 22.4211C86.886 22.1409 86.969 21.8443 86.969 21.5312C86.969 21.2017 86.886 20.905 86.72 20.6414C86.5707 20.3777 86.3632 20.1635 86.0977 19.9987C85.8321 19.8339 85.5251 19.7515 85.1766 19.7515C84.8447 19.7515 84.5377 19.8339 84.2555 19.9987C83.99 20.147 83.7743 20.3612 83.6083 20.6414C83.459 20.905 83.3843 21.2017 83.3843 21.5312C83.3843 21.8443 83.4673 22.1409 83.6332 22.4211C83.7992 22.6848 84.0232 22.899 84.3053 23.0638C84.5875 23.2286 84.8862 23.3109 85.2015 23.3109ZM89.2841 27.785C88.6202 27.785 88.1224 27.6861 87.7904 27.4883C87.4585 27.2906 87.2345 26.9775 87.1183 26.549V11.8417C87.1183 11.4791 87.1349 11.1248 87.1681 10.7788C87.2179 10.4327 87.3921 10.1526 87.6909 9.93834C87.9896 9.70764 88.5124 9.59229 89.2592 9.59229C90.0226 9.59229 90.5536 9.6994 90.8524 9.91362C91.1677 10.1278 91.3585 10.408 91.4249 10.754C91.4913 11.0836 91.5245 11.4379 91.5245 11.8169V25.5356C91.5245 25.8981 91.4913 26.2524 91.4249 26.5985C91.3585 26.9445 91.1677 27.2329 90.8524 27.4636C90.5536 27.6779 90.0309 27.785 89.2841 27.785Z" fill="#E8063C"/>
<path d="M33.265 32.4487C33.1739 33.8195 33.0604 35.1902 32.9264 36.5608C22.3468 37.2516 11.7678 37.2516 1.18879 36.5608C1.05482 35.1901 0.941278 33.8194 0.850162 32.4487C0.363934 25.184 0.476813 17.92 1.18879 10.6552C11.7678 9.96454 22.3468 9.96454 32.9264 10.6552C33.6383 17.92 33.7512 25.184 33.265 32.4487Z" fill="#F7F9F9"/>
<path d="M33.2652 32.4487C33.1741 33.8194 33.0605 35.1902 32.9265 36.5608C22.3469 37.2516 11.768 37.2516 1.18897 36.5608C1.055 35.1901 0.941458 33.8194 0.850342 32.4487H33.2652Z" fill="#BCDF95"/>
<path d="M11.4871 17.0446C12.1602 18.2708 11.3865 20.2841 9.58471 20.2841C7.78286 20.2841 6.32227 18.8337 6.32227 17.0446C6.32227 15.2556 7.78286 13.8052 9.58471 13.8052C11.3865 13.8052 12.8471 15.2555 12.8471 17.0446" fill="#80B4FB"/>
<path d="M19.9001 20.4519C20.9054 20.5299 21.8214 21.7788 21.1168 22.854C20.4122 23.9293 18.9631 24.2337 17.8803 23.5341C16.7975 22.8345 16.4909 21.3957 17.1954 20.3205C17.9 19.2453 19.5345 18.6578 20.6173 19.3574" fill="#DD636E"/>
<path d="M27.8751 19.77C29.534 19.77 30.8787 18.4348 30.8787 16.7876C30.8787 15.1405 29.534 13.8052 27.8751 13.8052C26.2163 13.8052 24.8716 15.1405 24.8716 16.7876C24.8716 18.4348 26.2163 19.77 27.8751 19.77Z" fill="#F6E266"/>
<path d="M22.6401 4.83887C22.6401 4.83887 21.1297 5.79276 20.9705 7.93331C22.6865 9.23833 24.4083 8.75237 24.4083 8.75237L24.8951 6.18491L22.6401 4.83887Z" fill="#F6E266"/>
<path d="M23.2098 6.10022C23.2098 6.10022 21.6314 6.90334 20.97 7.93338C21.1296 5.79283 22.6399 4.83887 22.6399 4.83887L24.8949 6.18481L23.2098 6.10022Z" fill="#ECBE6B"/>
<path d="M22.6399 4.83901C25.801 3.30542 29.0092 1.87613 32.2645 0.55127C33.1106 1.74141 33.7 3.0459 34.0328 4.46469C30.8717 5.99832 27.6635 7.42759 24.4081 8.75244L22.6399 4.83901Z" fill="#80B4FB"/>
<path d="M23.2098 6.10027L22.6399 4.83901C25.801 3.30505 29.0088 1.87605 32.2645 0.55127C32.5365 0.934337 32.7825 1.32982 33.0019 1.73634C29.7214 3.15512 26.458 4.60977 23.2098 6.10027Z" fill="#61A2F9"/>
<path d="M12.4829 11.6853C12.4829 11.6853 13.9181 12.7477 15.9894 12.1341C16.6073 10.0774 15.5374 8.65234 15.5374 8.65234L12.9477 9.11386L12.4829 11.6853Z" fill="#F6E266"/>
<path d="M13.4674 10.7077C13.4674 10.7077 14.7847 11.8868 15.9895 12.1342C13.918 12.7475 12.4829 11.6852 12.4829 11.6852L12.9477 9.11377L13.4674 10.7077Z" fill="#ECBE6B"/>
<path d="M12.4827 11.6853C9.91478 9.29726 7.42835 6.82834 5.02344 4.2786C5.84269 3.07009 6.86089 2.05915 8.07797 1.24561C10.6459 3.63359 13.1323 6.1025 15.5372 8.65233L12.4827 11.6853Z" fill="#DD636E"/>
<path d="M13.467 10.7073L12.4826 11.6849C9.91434 9.29691 7.42835 6.82838 5.02344 4.27827C5.28723 3.88955 5.5719 3.52059 5.87649 3.17236C8.37874 5.71204 10.9088 8.2232 13.467 10.7073Z" fill="#DA4A54"/>
<path d="M32.9626 10.1058C27.5221 9.75038 22.0066 9.5768 16.5633 9.5879C16.3488 8.82163 16.009 8.35825 15.9824 8.32282C15.9701 8.3065 15.9568 8.29068 15.9425 8.27547C13.5406 5.72893 11.0223 3.22844 8.45758 0.843242C8.26877 0.66766 7.98283 0.644804 7.76814 0.788269C6.49707 1.63789 5.41879 2.7086 4.56313 3.97076C4.41864 4.1839 4.44159 4.46789 4.6185 4.65538C6.23159 6.36568 7.8978 8.05394 9.5945 9.70155C6.7902 9.78746 3.95662 9.92291 1.15237 10.1058C0.881018 10.1236 0.662519 10.3337 0.63617 10.6024C0.0599367 16.4823 -0.126145 22.446 0.0832526 28.3278C0.0938374 28.6254 0.340169 28.8596 0.637647 28.8596C0.644308 28.8596 0.650974 28.8596 0.657634 28.8592C0.964069 28.8485 1.20367 28.5931 1.19279 28.2889C0.990716 22.6111 1.16014 16.856 1.69633 11.1756C4.69466 10.986 7.72289 10.851 10.7086 10.7731C11.172 11.2144 11.6365 11.6535 12.1033 12.0876C12.1187 12.1019 12.1348 12.1148 12.1512 12.127C12.2037 12.1658 13.1858 12.8768 14.7007 12.8767C15.0478 12.8767 15.4234 12.8385 15.8217 12.7472L15.9048 12.8296C16.0132 12.9372 16.1553 12.9911 16.2974 12.9911C16.4394 12.9911 16.5815 12.9373 16.69 12.8296C16.9067 12.6144 16.9067 12.2653 16.69 12.0501L16.6066 11.9674C16.7134 11.5082 16.7477 11.0798 16.7342 10.6901C21.9431 10.6829 27.2119 10.8458 32.4187 11.1756C33.1975 19.4281 33.1975 27.7877 32.4187 36.0417C22.2231 36.6872 11.8922 36.6874 1.69648 36.0417C1.52106 34.1852 1.38405 32.312 1.28879 30.4667C1.27309 30.1627 1.01181 29.9285 0.705966 29.9445C0.399753 29.9601 0.164302 30.2192 0.179994 30.5232C0.284064 32.5399 0.43758 34.5894 0.636314 36.6148C0.662668 36.8836 0.881168 37.0938 1.15245 37.1115C6.42941 37.456 11.7435 37.6284 17.0576 37.6284C22.3717 37.6284 27.6859 37.4561 32.9629 37.1115C33.2341 37.0938 33.4527 36.8835 33.479 36.6148C34.3245 27.9838 34.3245 19.232 33.479 10.6026C33.4524 10.3337 33.234 10.1236 32.9626 10.1058ZM5.73759 4.22829C6.38189 3.35655 7.14945 2.59431 8.02747 1.95459C10.3305 4.10871 12.5933 6.35441 14.7642 8.64036L12.4709 10.9177C10.1687 8.76209 7.90704 6.51514 5.73759 4.22829ZM13.4105 11.5436L15.3944 9.57367C15.5751 10.0482 15.7343 10.7821 15.5341 11.6821C14.6269 11.8811 13.8883 11.7232 13.4105 11.5436Z" fill="black"/>
<path d="M4.93737 24.181C4.6675 24.3255 4.56661 24.6598 4.71206 24.9278C4.85758 25.1958 5.19429 25.296 5.46414 25.1515L9.02963 23.2434V26.2511L5.83301 32.9583C5.7019 33.2334 5.82018 33.5621 6.09732 33.6923C6.37436 33.8224 6.70545 33.705 6.83655 33.4299L9.5847 27.6636L12.3327 33.4299C12.4276 33.6289 12.627 33.7454 12.8349 33.7454C12.9145 33.7454 12.9953 33.7284 13.072 33.6923C13.3491 33.5621 13.4674 33.2334 13.3363 32.9583L10.1397 26.2511V23.2701L14.3109 25.8507C14.399 25.9052 14.5007 25.934 14.6045 25.934L18.5233 25.9342V28.1807L16.2464 32.9582C16.1153 33.2334 16.2336 33.562 16.5107 33.6922C16.5874 33.7282 16.6682 33.7454 16.7478 33.7454C16.9557 33.7454 17.1551 33.6288 17.2499 33.4298L19.0784 29.5932L20.9068 33.4298C21.0379 33.705 21.3689 33.8224 21.646 33.6922C21.9231 33.562 22.0415 33.2334 21.9103 32.9582L19.6335 28.1807V26.3594L22.3841 28.0611C22.4754 28.1176 22.5768 28.1445 22.6771 28.1445C22.8625 28.1445 23.0436 28.0524 23.1488 27.8847C23.3109 27.6263 23.2314 27.2864 22.9712 27.1253L19.6335 25.0605V24.4215C19.674 24.4147 19.7144 24.4077 19.7548 24.3992C20.5112 24.2403 21.16 23.7985 21.5816 23.155C21.9873 22.5358 22.0307 21.7997 21.7009 21.1353C21.3569 20.4426 20.6667 19.9588 19.9427 19.9027C19.636 19.8797 19.3699 20.1059 19.346 20.4095C19.3222 20.713 19.5507 20.9782 19.8564 21.0019C20.1873 21.0275 20.5362 21.2829 20.7051 21.6229C20.8144 21.8431 20.8938 22.1833 20.6511 22.5539C20.3911 22.9504 19.9913 23.2228 19.525 23.3208C19.0587 23.4187 18.5821 23.3306 18.1826 23.0725C17.7832 22.8144 17.5088 22.4173 17.4101 21.9544C17.3115 21.4914 17.4002 21.0181 17.6602 20.6214C17.9336 20.2043 18.4075 19.86 18.9278 19.7004C19.2321 19.6071 19.8169 19.4986 20.3141 19.8198C20.5712 19.9859 20.9148 19.9136 21.0821 19.6585C21.2494 19.4033 21.1766 19.0618 20.9196 18.8958C20.2699 18.476 19.4463 18.3877 18.6003 18.6471C17.8281 18.8839 17.1464 19.3844 16.7297 20.0202C16.308 20.6636 16.1639 21.4316 16.3241 22.1827C16.4842 22.9336 16.9291 23.5779 17.5772 23.9966C17.8712 24.1866 18.1911 24.3194 18.5233 24.3935V24.832L14.7633 24.8317L10.1397 21.9714V20.78C10.8599 20.6337 11.4715 20.2018 11.8646 19.5445C12.3798 18.683 12.4229 17.5984 11.9743 16.7813C11.8277 16.5139 11.4905 16.4154 11.2212 16.561C10.9519 16.7067 10.8527 17.0416 10.9995 17.3089C11.2601 17.7839 11.2242 18.4561 10.9099 18.9816C10.742 19.2624 10.3466 19.7333 9.58453 19.7333C8.09175 19.7333 6.87721 18.5274 6.87721 17.0451C6.87721 15.5628 8.09175 14.3569 9.58453 14.3569C11.0773 14.3569 12.2917 15.5628 12.2917 17.0451C12.2917 17.3495 12.5402 17.5963 12.8469 17.5963C13.1536 17.5963 13.402 17.3495 13.402 17.0451C13.402 14.9549 11.6895 13.2544 9.58453 13.2544C7.47953 13.2544 5.76696 14.9549 5.76696 17.0451C5.76696 18.948 7.18661 20.5275 9.02941 20.7953V21.9912L4.93737 24.181Z" fill="black"/>
<path d="M27.8748 13.2539C25.9126 13.2539 24.3162 14.8391 24.3162 16.7875C24.3162 18.736 25.9126 20.3212 27.8748 20.3212C29.8371 20.3212 31.4336 18.736 31.4336 16.7875C31.4336 14.8391 29.8371 13.2539 27.8748 13.2539ZM27.8748 19.2188C26.5248 19.2188 25.4264 18.1281 25.4264 16.7875C25.4264 15.447 26.5248 14.3563 27.8748 14.3563C29.225 14.3563 30.3233 15.447 30.3233 16.7875C30.3233 18.1281 29.225 19.2188 27.8748 19.2188Z" fill="black"/>
<path d="M23.786 13.2813L21.5819 12.5642C21.2904 12.4693 20.9769 12.6272 20.8815 12.9164C20.786 13.2058 20.9448 13.5172 21.2362 13.6119L23.4404 14.329C23.4977 14.3476 23.556 14.3565 23.6132 14.3565C23.8468 14.3565 24.0641 14.2091 24.1407 13.9768C24.2362 13.6875 24.0774 13.3761 23.786 13.2813Z" fill="black"/>
<path d="M20.4968 17.0449C20.4968 17.3493 20.7453 17.5961 21.052 17.5961H22.6783C22.9849 17.5961 23.2334 17.3493 23.2334 17.0449C23.2334 16.7405 22.9849 16.4937 22.6783 16.4937H21.052C20.7453 16.4937 20.4968 16.7405 20.4968 17.0449Z" fill="black"/>
<path d="M24.1201 23.8295C24.1958 23.8644 24.2753 23.8809 24.3535 23.8809C24.5629 23.8809 24.7634 23.7627 24.8574 23.5616L25.8172 21.5086C25.9463 21.2324 25.8255 20.9047 25.5474 20.7765C25.2692 20.6483 24.9392 20.7682 24.8101 21.0444L23.8503 23.0975C23.7212 23.3735 23.842 23.7012 24.1201 23.8295Z" fill="black"/>
<path d="M30.5952 23.7505L30.1638 21.1856C30.1133 20.8854 29.8271 20.6824 29.5248 20.7328C29.2224 20.7829 29.0182 21.0669 29.0687 21.3672L29.5001 23.9322C29.5454 24.2017 29.7806 24.3927 30.047 24.3927C30.0774 24.3927 30.1082 24.3902 30.1391 24.3851C30.4415 24.3349 30.6458 24.0509 30.5952 23.7505Z" fill="black"/>
<path d="M7.57886 16.7221V16.7558C7.57886 17.0602 7.8273 17.307 8.13393 17.307C8.44062 17.307 8.68906 17.0602 8.68906 16.7558V16.7221C8.68906 16.4177 8.44062 16.1709 8.13393 16.1709C7.8273 16.1709 7.57886 16.4177 7.57886 16.7221Z" fill="black"/>
<path d="M9.0293 16.0863V16.12C9.0293 16.4245 9.27774 16.6713 9.58437 16.6713C9.891 16.6713 10.1395 16.4245 10.1395 16.12V16.0863C10.1395 15.7819 9.891 15.5352 9.58437 15.5352C9.27774 15.5352 9.0293 15.7819 9.0293 16.0863Z" fill="black"/>
<path d="M17.8606 21.3528L17.8415 21.3808C17.6695 21.6327 17.7358 21.9754 17.9895 22.1463C18.085 22.2105 18.1933 22.2413 18.3005 22.2413C18.4783 22.2413 18.6531 22.1565 18.7605 21.9993L18.7795 21.9713C18.9516 21.7193 18.8853 21.3766 18.6316 21.2058C18.3778 21.035 18.0326 21.1009 17.8606 21.3528Z" fill="black"/>
<path d="M19.8608 22.5225C20.0386 22.5225 20.2134 22.4377 20.3208 22.2806L20.3399 22.2526C20.5119 22.0006 20.4457 21.658 20.1919 21.4871C19.938 21.3163 19.5929 21.3821 19.4209 21.6341L19.4018 21.662C19.2298 21.914 19.2961 22.2567 19.5498 22.4275C19.6452 22.4918 19.7536 22.5225 19.8608 22.5225Z" fill="black"/>
<path d="M3.12468 32.9203V31.978C3.12468 31.6736 2.8762 31.4268 2.56954 31.4268C2.26289 31.4268 2.0144 31.6736 2.0144 31.978V32.9203C2.0144 33.2247 2.26289 33.4715 2.56954 33.4715C2.8762 33.4715 3.12468 33.2247 3.12468 32.9203Z" fill="black"/>
<path d="M4.59098 32.9203V31.978C4.59098 31.6736 4.34251 31.4268 4.03585 31.4268C3.7292 31.4268 3.48071 31.6736 3.48071 31.978V32.9203C3.48071 33.2247 3.7292 33.4715 4.03585 33.4715C4.34251 33.4715 4.59098 33.2247 4.59098 32.9203Z" fill="black"/>
<path d="M23.6206 31.4263C23.3139 31.4263 23.0654 31.6731 23.0654 31.9775V32.9198C23.0654 33.2242 23.3139 33.471 23.6206 33.471C23.9272 33.471 24.1757 33.2242 24.1757 32.9198V31.9775C24.1757 31.6731 23.9272 31.4263 23.6206 31.4263Z" fill="black"/>
<path d="M24.5317 31.9775V32.9198C24.5317 33.2242 24.7802 33.471 25.0869 33.471C25.3936 33.471 25.642 33.2242 25.642 32.9198V31.9775C25.642 31.6731 25.3936 31.4263 25.0869 31.4263C24.7802 31.4263 24.5317 31.6731 24.5317 31.9775Z" fill="black"/>
<path d="M27.5947 31.9775V32.9198C27.5947 33.2242 27.8432 33.471 28.1499 33.471C28.4565 33.471 28.705 33.2242 28.705 32.9198V31.9775C28.705 31.6731 28.4565 31.4263 28.1499 31.4263C27.8432 31.4263 27.5947 31.6731 27.5947 31.9775Z" fill="black"/>
<path d="M29.6167 31.4263C29.31 31.4263 29.0615 31.6731 29.0615 31.9775V32.9198C29.0615 33.2242 29.31 33.471 29.6167 33.471C29.9233 33.471 30.1718 33.2242 30.1718 32.9198V31.9775C30.1718 31.6731 29.9232 31.4263 29.6167 31.4263Z" fill="black"/>
<path d="M30.7869 31.9775V32.9198C30.7869 33.2242 31.0354 33.471 31.342 33.471C31.6487 33.471 31.8972 33.2242 31.8972 32.9198V31.9775C31.8972 31.6731 31.6487 31.4263 31.342 31.4263C31.0354 31.4263 30.7869 31.6731 30.7869 31.9775Z" fill="black"/>
<path d="M34.5735 4.3402C34.2266 2.85887 33.6023 1.47712 32.718 0.233408C32.5688 0.0235016 32.2932 -0.0563163 32.0538 0.0413608C30.9053 0.509171 29.7587 0.99131 28.6455 1.47426C28.3645 1.59619 28.2364 1.92112 28.3591 2.20004C28.4819 2.47903 28.8091 2.60633 29.0901 2.48447C30.0607 2.06334 31.0571 1.64279 32.058 1.23194C32.6496 2.14021 33.0942 3.12397 33.3836 4.16571C30.5367 5.53673 27.6184 6.83779 24.6943 8.03959L23.3666 5.10089C24.5792 4.51732 25.824 3.9378 27.0741 3.37518C27.3533 3.2495 27.477 2.92281 27.3504 2.6455C27.2239 2.3682 26.895 2.24531 26.6156 2.37107C25.1892 3.01314 23.7695 3.67696 22.3959 4.34402C22.3771 4.35313 22.3593 4.36335 22.3421 4.37422C22.2742 4.41708 20.7521 5.4034 20.453 7.55973L20.3456 7.60757C20.0658 7.73221 19.9408 8.05838 20.0664 8.33616C20.1587 8.54061 20.3612 8.66189 20.5732 8.66189C20.6491 8.66189 20.7263 8.64629 20.8001 8.61344L20.9077 8.56554C21.9165 9.23684 22.9048 9.39229 23.5987 9.39229C24.1574 9.39229 24.5255 9.29259 24.5599 9.28287C24.5796 9.27727 24.5992 9.27078 24.6186 9.26293C27.8697 7.93951 31.119 6.4919 34.2763 4.96036C34.509 4.84755 34.6321 4.59031 34.5735 4.3402ZM22.4433 5.75046L23.5917 8.2921C23.0809 8.29101 22.3334 8.17763 21.5575 7.67178C21.6929 6.75929 22.1043 6.12991 22.4433 5.75046Z" fill="black"/>
</g>
</svg>
